# xmcd
# 
# Track frame offsets:
#     150
#     15878
#     33493
#     49993
#     72568
#     91800
#     112150
#     133385
#     154215
#     173163
#     194738
#     211915
#     233635
# 
# Disc length: 3389
# 
# Revision: 1
# Processed by: cddbd v1.5.2PL0 Copyright (c) Steve Scherf et al.
# Submitted via: fre:ac v1.0.31
# 
DISCID=ba0d3b0d
DTITLE=田村ゆかり - 木漏れ日の花冠
DYEAR=2009
DGENRE=Blues
TTITLE0=恋のアゲハ
TTITLE1=アンジュ・パッセ
TTITLE2=パピィラヴ
TTITLE3=バンビーノ・バンビーナ（Flower mode）
TTITLE4=エトランゼ
TTITLE5=Luminous Party
TTITLE6=Kiss away〜幻の森〜
TTITLE7=Tomorrow（Crown edit）
TTITLE8=嘆きの丘
TTITLE9=Shooting Star
TTITLE10=Cherry Kiss
TTITLE11=ひとひらの恋
TTITLE12=星降る夢で逢いましょう
EXTD=
EXTT0=
EXTT1=
EXTT2=
EXTT3=
EXTT4=
EXTT5=
EXTT6=
EXTT7=
EXTT8=
EXTT9=
EXTT10=
EXTT11=
EXTT12=
PLAYORDER=
